<svg xmlns="http://www.w3.org/2000/svg" width="1280" height="720" viewBox="0 0 1280 720" font-family="Avenir Next, Segoe UI, system-ui, -apple-system, sans-serif">
<rect width="1280" height="720" fill="#f3f5f3"/>
<rect x="0" y="0" width="1280" height="52" fill="#ffffff"/><line x1="0" y1="52" x2="1280" y2="52" stroke="#e1e5e1"/>
<rect x="28" y="15" width="30" height="22" rx="5" fill="#17201c"/><text x="43" y="31" font-size="12" font-weight="700" fill="#ffffff" text-anchor="middle">FN</text>
<text x="66" y="32" font-size="17" font-weight="700" fill="#17201c">FiscalNinja</text>
<text x="190" y="32" font-size="13" fill="#17201c" font-weight="600">Cruscotto</text>
<text x="288" y="32" font-size="13" fill="#59635d" font-weight="400">Versamenti</text>
<text x="394" y="32" font-size="13" fill="#59635d" font-weight="400">INPS</text>
<text x="452" y="32" font-size="13" fill="#59635d" font-weight="400">Fatture</text>
<text x="534" y="32" font-size="13" fill="#59635d" font-weight="400">Clienti</text>
<text x="616" y="32" font-size="13" fill="#59635d" font-weight="400">Crypto</text>
<text x="690" y="32" font-size="13" fill="#59635d" font-weight="400">Impostazioni</text>
<rect x="28" y="72" width="1224" height="74" rx="18" fill="#ffffff" stroke="#e1e5e1"/>
<text x="50" y="96" font-size="10" font-weight="700" fill="#0f6b52" letter-spacing="1.5">FISCALNINJA · CRUSCOTTO · 2026</text>
<text x="50" y="124" font-size="22" font-weight="700" fill="#17201c">Quanto ti resta, dove va il resto</text>
<rect x="380" y="108" width="91" height="20" rx="5" fill="#dfeb57"/><text x="389" y="122" font-size="11" fill="#17201c">Regole 2026</text>
<rect x="478.6" y="108" width="117" height="20" rx="5" fill="#eef1ee"/><text x="487.6" y="122" font-size="11" fill="#17201c">Forfettario 15%</text>
<rect x="603.6" y="108" width="84" height="20" rx="5" fill="#eef1ee"/><text x="612.6" y="122" font-size="11" fill="#17201c">Coeff. 78%</text>
<rect x="695.6" y="108" width="176" height="20" rx="5" fill="#eef1ee"/><text x="704.6" y="122" font-size="11" fill="#17201c">Gestione Separata 26,07%</text>
<rect x="880.0" y="108" width="130" height="20" rx="5" fill="#eef1ee"/><text x="889.0" y="122" font-size="11" fill="#17201c">Criterio di cassa</text>
<rect x="28" y="164" width="234" height="92" rx="18" fill="#ffffff" stroke="#e1e5e1"/>
<text x="46" y="188" font-size="10" font-weight="700" fill="#59635d" letter-spacing="1">NETTO · MEDIA SU 8 MESI</text>
<text x="46" y="226" font-size="34" font-weight="700" fill="#17201c">3.230,53 €</text>
<text x="46" y="246" font-size="11" fill="#59635d">/mese</text>
<rect x="276" y="164" width="234" height="92" rx="18" fill="#ffffff" stroke="#e1e5e1"/>
<text x="294" y="188" font-size="10" font-weight="700" fill="#59635d" letter-spacing="1">INCASSATO 2026</text>
<text x="294" y="224" font-size="26" font-weight="700" fill="#17201c">36.784 €</text>
<text x="294" y="246" font-size="11" fill="#59635d">14 documenti · live</text>
<rect x="523" y="164" width="234" height="92" rx="18" fill="#ffffff" stroke="#e1e5e1"/>
<text x="541" y="188" font-size="10" font-weight="700" fill="#59635d" letter-spacing="1">IMPOSTA 15%</text>
<text x="541" y="224" font-size="26" font-weight="700" fill="#17201c">3.460 €</text>
<text x="541" y="246" font-size="11" fill="#59635d">9,4% dell'incassato</text>
<rect x="771" y="164" width="234" height="92" rx="18" fill="#ffffff" stroke="#e1e5e1"/>
<text x="789" y="188" font-size="10" font-weight="700" fill="#59635d" letter-spacing="1">CONTRIBUTI INPS</text>
<text x="789" y="224" font-size="26" font-weight="700" fill="#17201c">7.480 €</text>
<text x="789" y="246" font-size="11" fill="#59635d">20,3% dell'incassato</text>
<rect x="1018" y="164" width="234" height="92" rx="18" fill="#ffffff" stroke="#e1e5e1"/>
<text x="1036" y="188" font-size="10" font-weight="700" fill="#59635d" letter-spacing="1">ALIQUOTA EFFETTIVA</text>
<text x="1036" y="224" font-size="26" font-weight="700" fill="#17201c">29,7%</text>
<text x="1036" y="246" font-size="11" fill="#59635d">imposta + INPS</text>
<rect x="28" y="274" width="1224" height="418" rx="18" fill="#ffffff" stroke="#e1e5e1"/>
<rect x="50" y="298" width="18" height="2" fill="#dfeb57"/><text x="76" y="303" font-size="10" font-weight="700" fill="#59635d" letter-spacing="1.5">LIVELLO 2</text>
<text x="50" y="330" font-size="22" font-weight="700" fill="#17201c">Dove va il resto</text>
<text x="50" y="352" font-size="12" fill="#59635d">Le fasce sono in scala: ogni flusso è proporzionale all'importo. Si parte dall'incassato: nel forfettario conta quando i soldi entrano.</text>
<path d="M74,402 C243.20000000000002,402 280.8,402 450,402 L450,454.05658112222704 C280.8,454.05658112222704 243.20000000000002,454.05658112222704 74,454.05658112222704 Z" fill="#888a85" opacity="0.5"/>
<path d="M74,454.05658112222704 C243.20000000000002,454.05658112222704 280.8,498.05658112222704 450,498.05658112222704 L450,702.0 C280.8,702.0 243.20000000000002,658.0 74,658.0 Z" fill="#9cc35a" opacity="0.28"/>
<path d="M474,498.05658112222704 C643.2,498.05658112222704 680.8,498.05658112222704 850,498.05658112222704 L850,522.1359199652022 C680.8,522.1359199652022 643.2,522.1359199652022 474,522.1359199652022 Z" fill="#6d4c41" opacity="0.55"/>
<path d="M474,522.1359199652022 C643.2,522.1359199652022 680.8,566.1359199652022 850,566.1359199652022 L850,746.0 C680.8,746.0 643.2,702.0 474,702.0 Z" fill="#9cc35a" opacity="0.45"/>
<rect x="50" y="402.0" width="24" height="256.0" rx="5" fill="#17201c" opacity="1"/>
<rect x="450" y="402.0" width="24" height="52.1" rx="5" fill="#888a85" opacity="1"/>
<rect x="450" y="498.1" width="24" height="203.9" rx="5" fill="#313b20" opacity="0.85"/>
<rect x="850" y="498.1" width="24" height="24.1" rx="5" fill="#6d4c41" opacity="1"/>
<rect x="850" y="566.1" width="24" height="179.9" rx="5" fill="#9cc35a" opacity="1"/>
<text x="50" y="372" font-size="11" font-weight="600" fill="#59635d" text-anchor="start">INCASSATO</text><text x="50" y="391" font-size="17" font-weight="700" fill="#17201c" text-anchor="start">36.784,00 €</text>
<text x="486" y="416" font-size="11" font-weight="600" fill="#59635d" text-anchor="start">INPS Gestione Separata</text><text x="486" y="435" font-size="17" font-weight="700" fill="#17201c" text-anchor="start">7.479,88 €</text><text x="486" y="450" font-size="10.5" fill="#88918b" text-anchor="start">20,3% dell'incassato</text>
<text x="486" y="470" font-size="11" font-weight="600" fill="#59635d" text-anchor="start">Resta dopo i contributi</text><text x="486" y="489" font-size="17" font-weight="700" fill="#17201c" text-anchor="start">29.304,12 €</text>
<text x="888" y="512" font-size="11" font-weight="600" fill="#59635d" text-anchor="start">Imposta sostitutiva</text><text x="888" y="531" font-size="17" font-weight="700" fill="#6d4c41" text-anchor="start">3.459,90 €</text><text x="888" y="546" font-size="10.5" fill="#88918b" text-anchor="start">9,4% dell'incassato</text>
<text x="888" y="580" font-size="11" font-weight="600" fill="#59635d" text-anchor="start">NETTO</text><text x="888" y="599" font-size="17" font-weight="700" fill="#313b20" text-anchor="start">25.844,22 €</text><text x="888" y="614" font-size="10.5" fill="#88918b" text-anchor="start">70,3% dell'incassato</text>
</svg>