<svg xmlns="http://www.w3.org/2000/svg" width="1280" height="720" viewBox="0 0 1280 720" font-family="Avenir Next, Segoe UI, system-ui, -apple-system, sans-serif">
<rect width="1280" height="720" fill="#f3f5f3"/>
<rect x="0" y="0" width="1280" height="52" fill="#ffffff"/><line x1="0" y1="52" x2="1280" y2="52" stroke="#e1e5e1"/>
<rect x="28" y="15" width="30" height="22" rx="5" fill="#17201c"/><text x="43" y="31" font-size="12" font-weight="700" fill="#ffffff" text-anchor="middle">FN</text>
<text x="66" y="32" font-size="17" font-weight="700" fill="#17201c">FiscalNinja</text>
<text x="190" y="32" font-size="13" fill="#17201c" font-weight="600">Cruscotto</text>
<text x="288" y="32" font-size="13" fill="#59635d" font-weight="400">Versamenti</text>
<text x="394" y="32" font-size="13" fill="#59635d" font-weight="400">INPS</text>
<text x="452" y="32" font-size="13" fill="#59635d" font-weight="400">Fatture</text>
<text x="534" y="32" font-size="13" fill="#59635d" font-weight="400">Clienti</text>
<text x="616" y="32" font-size="13" fill="#59635d" font-weight="400">Crypto</text>
<text x="690" y="32" font-size="13" fill="#59635d" font-weight="400">Impostazioni</text>
<rect x="28" y="72" width="1224" height="86" rx="18" fill="#ffffff" stroke="#e1e5e1"/>
<text x="50" y="96" font-size="10" font-weight="700" fill="#0f6b52" letter-spacing="1.5">FISCALNINJA · CRUSCOTTO · 2026 · DATI DI ESEMPIO</text>
<text x="50" y="122" font-size="22" font-weight="700" fill="#17201c">Quanto ti resta, dove va il resto</text>
<rect x="50" y="132" width="91" height="18" rx="5" fill="#dfeb57"/><text x="59" y="145" font-size="10.5" fill="#17201c">Regole 2026</text>
<rect x="149" y="132" width="117" height="18" rx="5" fill="#eef1ee"/><text x="158" y="145" font-size="10.5" fill="#17201c">Forfettario 15%</text>
<rect x="274" y="132" width="84" height="18" rx="5" fill="#eef1ee"/><text x="283" y="145" font-size="10.5" fill="#17201c">Coeff. 78%</text>
<rect x="366" y="132" width="176" height="18" rx="5" fill="#eef1ee"/><text x="375" y="145" font-size="10.5" fill="#17201c">Gestione Separata 26,07%</text>
<rect x="550" y="132" width="130" height="18" rx="5" fill="#eef1ee"/><text x="559" y="145" font-size="10.5" fill="#17201c">Criterio di cassa</text>
<rect x="28" y="174" width="234" height="90" rx="18" fill="#ffffff" stroke="#e1e5e1"/>
<text x="46" y="197" font-size="10" font-weight="700" fill="#59635d" letter-spacing="1">NETTO · MEDIA SU 8 MESI</text>
<text x="46" y="235" font-size="34" font-weight="700" fill="#17201c">4.570,74 €</text>
<text x="46" y="254" font-size="11" fill="#59635d">/mese</text>
<rect x="276" y="174" width="234" height="90" rx="18" fill="#ffffff" stroke="#e1e5e1"/>
<text x="294" y="197" font-size="10" font-weight="700" fill="#59635d" letter-spacing="1">INCASSATO 2026</text>
<text x="294" y="233" font-size="26" font-weight="700" fill="#17201c">52.300 €</text>
<text x="294" y="254" font-size="11" fill="#59635d">23 documenti · live</text>
<rect x="523" y="174" width="234" height="90" rx="18" fill="#ffffff" stroke="#e1e5e1"/>
<text x="541" y="197" font-size="10" font-weight="700" fill="#59635d" letter-spacing="1">IMPOSTA 15%</text>
<text x="541" y="233" font-size="26" font-weight="700" fill="#17201c">5.099 €</text>
<text x="541" y="254" font-size="11" fill="#59635d">9,8% dell'incassato</text>
<rect x="771" y="174" width="234" height="90" rx="18" fill="#ffffff" stroke="#e1e5e1"/>
<text x="789" y="197" font-size="10" font-weight="700" fill="#59635d" letter-spacing="1">CONTRIBUTI INPS</text>
<text x="789" y="233" font-size="26" font-weight="700" fill="#17201c">10.635 €</text>
<text x="789" y="254" font-size="11" fill="#59635d">20,3% dell'incassato</text>
<rect x="1018" y="174" width="234" height="90" rx="18" fill="#ffffff" stroke="#e1e5e1"/>
<text x="1036" y="197" font-size="10" font-weight="700" fill="#59635d" letter-spacing="1">ALIQUOTA EFFETTIVA</text>
<text x="1036" y="233" font-size="26" font-weight="700" fill="#17201c">30,1%</text>
<text x="1036" y="254" font-size="11" fill="#59635d">imposta + INPS</text>
<rect x="28" y="282" width="1224" height="410" rx="18" fill="#ffffff" stroke="#e1e5e1"/>
<rect x="50" y="306" width="18" height="2" fill="#dfeb57"/><text x="76" y="311" font-size="10" font-weight="700" fill="#59635d" letter-spacing="1.5">LIVELLO 2</text>
<text x="50" y="338" font-size="22" font-weight="700" fill="#17201c">Dove va il resto</text>
<text x="50" y="360" font-size="12" fill="#59635d">Le fasce sono in scala: ogni flusso è proporzionale all'importo. Si parte dall'incassato: nel forfettario conta quando i soldi entrano.</text>
<path d="M74,406.0 C243.20000000000002,406.0 280.8,406.0 450,406.0 L450,456.4 C280.8,456.4 243.20000000000002,456.4 74,456.4 Z" fill="#888a85" opacity="0.5"/>
<path d="M74,456.4 C243.20000000000002,456.4 280.8,500.4 450,500.4 L450,698.0 C280.8,698.0 243.20000000000002,654.0 74,654.0 Z" fill="#9cc35a" opacity="0.28"/>
<path d="M474,500.4 C643.2,500.4 680.8,500.4 850,500.4 L850,524.6 C680.8,524.6 643.2,524.6 474,524.6 Z" fill="#6d4c41" opacity="0.55"/>
<path d="M474,524.6 C643.2,524.6 680.8,568.6 850,568.6 L850,742.0 C680.8,742.0 643.2,698.0 474,698.0 Z" fill="#9cc35a" opacity="0.45"/>
<rect x="50" y="406.0" width="24" height="248.0" rx="5" fill="#17201c" opacity="1"/>
<rect x="450" y="406.0" width="24" height="50.4" rx="5" fill="#888a85" opacity="1"/>
<rect x="450" y="500.4" width="24" height="197.6" rx="5" fill="#313b20" opacity="0.85"/>
<rect x="850" y="500.4" width="24" height="24.2" rx="5" fill="#6d4c41" opacity="1"/>
<rect x="850" y="568.6" width="24" height="173.4" rx="5" fill="#9cc35a" opacity="1"/>
<text x="50" y="376" font-size="11" font-weight="600" fill="#59635d">INCASSATO</text><text x="50" y="395" font-size="17" font-weight="700" fill="#17201c">52.300,00 €</text>
<text x="486" y="420" font-size="11" font-weight="600" fill="#59635d">INPS Gestione Separata</text><text x="486" y="439" font-size="17" font-weight="700" fill="#17201c">10.635,00 €</text><text x="486" y="454" font-size="10.5" fill="#88918b">20,3% dell'incassato</text>
<text x="486" y="472" font-size="11" font-weight="600" fill="#59635d">Resta dopo i contributi</text><text x="486" y="491" font-size="17" font-weight="700" fill="#17201c">41.665,00 €</text>
<text x="888" y="514" font-size="11" font-weight="600" fill="#59635d">Imposta sostitutiva</text><text x="888" y="533" font-size="17" font-weight="700" fill="#6d4c41">5.099,10 €</text><text x="888" y="548" font-size="10.5" fill="#88918b">9,8% dell'incassato</text>
<text x="888" y="583" font-size="11" font-weight="600" fill="#59635d">NETTO</text><text x="888" y="602" font-size="17" font-weight="700" fill="#313b20">36.565,90 €</text><text x="888" y="617" font-size="10.5" fill="#88918b">69,9% dell'incassato</text>
</svg>